<svg width="122" height="25" viewBox="0 0 122 25" fill="none" xmlns="http://www.w3.org/2000/svg">
<path d="M1 12.75H120.705" stroke="black" stroke-linecap="round" stroke-dasharray="2 2"/>
<g clip-path="url(#clip0_214_1031)">
<path d="M63.1648 14.75L58.7439 22.75L56.9941 22.75L59.2041 14.75L54.5146 14.75L53.057 17.75L51.7447 17.75L52.6196 13.25L51.7447 8.75L53.057 8.75L54.5155 11.75L59.205 11.75L56.9941 3.75L58.7439 3.75L63.1648 11.75L67.9304 11.75C68.2785 11.75 68.6123 11.908 68.8584 12.1893C69.1045 12.4706 69.2428 12.8522 69.2428 13.25C69.2428 13.6478 69.1045 14.0294 68.8584 14.3107C68.6123 14.592 68.2785 14.75 67.9304 14.75L63.1648 14.75Z" fill="black"/>
</g>
<defs>
<clipPath id="clip0_214_1031">
<rect width="24" height="20.9978" fill="white" transform="translate(70.9926 0.75) rotate(90)"/>
</clipPath>
</defs>
</svg>
